# xmcd
#
# Track frame offsets:
#	150
#	4490
#	27851
#	53808
#	78698
#	101356
#	125570
#	147501
#	167271
#	191986
#	215628
#	245643
#
# Disc length: 3646 seconds
#
# Revision: 0
# Processed by: cddbd v1.5.2PL0 Copyright (c) Steve Scherf et al.
# Submitted via: dBpowerAMP V4.0
#
DISCID=ad0e3c0c
DTITLE=Farenheit - On Fire
DYEAR=2006
DGENRE=Club
TTITLE0=Intro
TTITLE1=On Fire
TTITLE2=Ou Fèm Transpòte (Ou Se)
TTITLE3=Goj Alkol
TTITLE4=Securite
TTITLE5=Jere Koze W
TTITLE6=Tout Se Pou Ou (Remix)
TTITLE7=Whats Your Name
TTITLE8=M Pap Chèche Ankò
TTITLE9=Mwen La Pou Ou
TTITLE10=Lago Kache
TTITLE11=DATA
EXTD=Compas
EXTT0=
EXTT1=
EXTT2=
EXTT3=
EXTT4=
EXTT5=
EXTT6=
EXTT7=
EXTT8=
EXTT9=
EXTT10=
EXTT11=
PLAYORDER=
